<?xml version="1.0" encoding="utf-8"?>
<!-- Generator: Adobe Illustrator 20.0.0, SVG Export Plug-In . SVG Version: 6.00 Build 0)  -->
<svg version="1.2" baseProfile="tiny" id="Layer_1" xmlns="http://www.w3.org/2000/svg" xmlns:xlink="http://www.w3.org/1999/xlink"
	 x="0px" y="0px" viewBox="0 0 24 24" overflow="scroll" xml:space="preserve">
<g>
	<path fill-rule="evenodd" fill="#0192D5" d="M21,4.7c-1.8-1.8-4.5-2-5.9-0.5c-1,1-1.2,2.4-0.8,3.8c-0.7-0.3-1.5-0.4-2.3-0.4
		c-0.8,0-1.6,0.2-2.4,0.4c0.4-1.4,0.2-2.9-0.7-3.8C7.4,2.6,4.8,2.9,3,4.7c-1.8,1.8-2,4.4-0.5,5.9c0.9,0.9,2.2,1.2,3.5,0.8
		c-0.4,0.8-0.6,1.8-0.6,2.7c0,3.7,3,6.7,6.7,6.7c3.7,0,6.7-3,6.7-6.7c0-1-0.2-1.9-0.6-2.7c1.3,0.3,2.6,0,3.5-0.8
		C23.1,9.1,22.8,6.5,21,4.7z"/>
</g>
</svg>
