<?xml version="1.0" encoding="utf-8"?>
<!-- Generator: Adobe Illustrator 20.0.0, SVG Export Plug-In . SVG Version: 6.00 Build 0)  -->
<svg version="1.2" baseProfile="tiny" id="Layer_1" xmlns="http://www.w3.org/2000/svg" xmlns:xlink="http://www.w3.org/1999/xlink"
	 x="0px" y="0px" viewBox="0 0 24 24" xml:space="preserve">
<g>
	<g>
		<g>
			<g>
				<path fill="#FFFFFF" d="M12.9,9.9h0.6c0.1,0,0.2-0.1,0.2-0.2l-0.1-1.3c0-0.1,0-0.2,0-0.2s-0.1,0.1-0.1,0.2l-0.7,1.3
					C12.8,9.9,12.8,9.9,12.9,9.9z"/>
			</g>
			<g>
				<path fill="#FFFFFF" d="M11.9,13.7h-0.2c-0.1,0-0.2,0.1-0.2,0.2l-0.2,0.8c0,0.1,0,0.2,0.1,0.2h0.2c0.5,0,0.7-0.3,0.7-0.8
					C12.4,13.8,12.2,13.7,11.9,13.7z"/>
			</g>
			<g>
				<path fill="#FFFFFF" d="M4.5,8.3c0,0,0,0.1-0.1,0.2L3.7,9.8c0,0.1,0,0.2,0.1,0.2h0.6c0.1,0,0.2-0.1,0.2-0.2L4.5,8.3L4.5,8.3z"/>
			</g>
			<g>
				<path fill="#FFFFFF" d="M12,0.2C5.5,0.2,0.2,5.5,0.2,12S5.5,23.8,12,23.8S23.8,18.5,23.8,12S18.5,0.2,12,0.2z M15.7,11.8
					l1.1-4.7c0-0.1,0.1-0.2,0.2-0.2h1.4c0.1,0,0.2,0.1,0.2,0.2l0.6,2.2c0,0.1,0.1,0.2,0.1,0.2s0-0.1,0.1-0.2l0.5-2.2
					c0-0.1,0.1-0.2,0.2-0.2h1c0.1,0,0.2,0.1,0.1,0.2l-1.1,4.7c0,0.1-0.1,0.2-0.2,0.2h-1.2c-0.1,0-0.2-0.1-0.2-0.2l-0.7-2.5
					c0-0.1-0.1-0.2-0.1-0.2s0,0.1-0.1,0.2L17,11.8c0,0.1-0.1,0.2-0.2,0.2h-1C15.7,11.9,15.7,11.9,15.7,11.8z M12.9,7.1
					c0-0.1,0.2-0.2,0.3-0.2h1.6C14.9,6.9,15,7,15,7.1l0.5,4.3c0,0.1,0,0.3,0,0.4c0,0.1-0.1,0.2-0.2,0.2H14c-0.1,0-0.2-0.1-0.2-0.2
					v-0.6c0-0.1-0.1-0.2-0.2-0.2h-1.1c-0.1,0-0.2,0.1-0.3,0.2l-0.3,0.6c0,0.1-0.2,0.2-0.3,0.2h-0.9c-0.1,0-0.2-0.1-0.2-0.2
					c0-0.1,0-0.2,0.1-0.3L12.9,7.1z M7.1,6.9h1.3c0.1,0,0.2,0.1,0.2,0.2l0.2,2.7c0,0.1,0,0.2,0,0.2s0.1-0.1,0.1-0.2L10.3,7
					c0-0.1,0.2-0.2,0.3-0.2h1c0.1,0,0.2,0.1,0.2,0.2s0,0.2-0.1,0.3l-2.4,4.3c0,0.1-0.2,0.2-0.3,0.2H7.5c-0.1,0-0.2-0.1-0.2-0.2
					L6.9,7.5c0-0.1,0-0.3,0-0.4S7,6.9,7.1,6.9z M4.7,11.8v-0.6C4.6,11,4.5,11,4.4,11H3.3c-0.1,0-0.2,0.1-0.3,0.2l-0.3,0.6
					c0,0.1-0.2,0.2-0.3,0.2H1.5c-0.1,0-0.2-0.1-0.2-0.2c0-0.1,0-0.2,0.1-0.3l2.4-4.3C3.9,7,4,6.9,4.1,6.9h1.6c0.1,0,0.2,0.1,0.2,0.2
					l0.5,4.3c0,0.1,0,0.3,0,0.4c0,0.1-0.1,0.2-0.2,0.2H4.9C4.8,11.9,4.7,11.8,4.7,11.8z M8.1,13.9l-0.8,3.5c0,0.1-0.1,0.2-0.2,0.2
					H5.7c-0.1,0-0.2-0.1-0.1-0.2l0.8-3.5c0-0.1,0-0.2-0.1-0.2H5.5c-0.1,0-0.2-0.1-0.1-0.2l0.2-0.8c0-0.1,0.1-0.2,0.2-0.2h3.7
					c0.1,0,0.2,0.1,0.1,0.2l-0.2,0.8c0,0.1-0.1,0.2-0.2,0.2H8.3C8.2,13.7,8.1,13.8,8.1,13.9z M12.9,15.6l0.6,1.5
					c0,0.1,0.1,0.2,0.1,0.3c0,0.1-0.1,0.2-0.2,0.2h-1.2c-0.1,0-0.2-0.1-0.2-0.2L11.4,16c0-0.1-0.1-0.2-0.2-0.2
					c-0.1,0-0.2,0.1-0.2,0.2l-0.3,1.4c0,0.1-0.1,0.2-0.2,0.2H9.1C9,17.6,9,17.5,9,17.4l1.1-4.7c0-0.1,0.1-0.2,0.2-0.2
					c0,0,1.3,0,1.8,0c1.3,0,1.9,0.5,1.9,1.4C14,14.7,13.6,15.3,12.9,15.6z M15.6,17.6h-1.3c-0.1,0-0.2-0.1-0.1-0.2l1.1-4.7
					c0-0.1,0.1-0.2,0.2-0.2h1.3c0.1,0,0.2,0.1,0.1,0.2l-1.1,4.7C15.8,17.5,15.7,17.6,15.6,17.6z M19.3,15.9H19
					c-0.1,0-0.2,0.1-0.2,0.2l-0.3,1.3c0,0.1-0.1,0.2-0.2,0.2H17c-0.1,0-0.2-0.1-0.1-0.2l1.1-4.7c0-0.1,0.1-0.2,0.2-0.2
					c0,0,1.2,0,1.7,0c1.3,0,1.9,0.5,1.9,1.4C21.7,15.3,20.8,15.9,19.3,15.9z"/>
			</g>
			<g>
				<path fill="#FFFFFF" d="M19.6,13.6h-0.1c-0.1,0-0.2,0.1-0.2,0.2l-0.2,0.9c0,0.1,0,0.2,0.1,0.2h0.1c0.5,0,0.7-0.3,0.7-0.8
					C20.1,13.8,19.9,13.6,19.6,13.6z"/>
			</g>
		</g>
	</g>
</g>
</svg>
