<?xml version="1.0" encoding="utf-8"?>
<!-- Generator: Adobe Illustrator 21.0.0, SVG Export Plug-In . SVG Version: 6.00 Build 0)  -->
<svg version="1.2" baseProfile="tiny" id="Layer_1" xmlns="http://www.w3.org/2000/svg" xmlns:xlink="http://www.w3.org/1999/xlink"
	 x="0px" y="0px" viewBox="0 0 24 24" overflow="scroll" xml:space="preserve">
<path fill="none" d="M0,0h24v24H0V0z"/>
<path fill="#FFFFFF" d="M20,11h-4V9c0-1.1-0.9-2-2-2h-4C8.9,7,8,7.9,8,9v2H4c-1.1,0-2,0.9-2,2l0,6c0,1.1,0.9,2,2,2h16
	c1.1,0,2-0.9,2-2v-6C22,11.9,21.1,11,20,11z M14,11h-4V9h4V11z"/>
</svg>
