<?xml version="1.0" encoding="utf-8"?>
<!-- Generator: Adobe Illustrator 21.0.0, SVG Export Plug-In . SVG Version: 6.00 Build 0)  -->
<svg version="1.2" baseProfile="tiny" id="Layer_1" xmlns="http://www.w3.org/2000/svg" xmlns:xlink="http://www.w3.org/1999/xlink"
	 x="0px" y="0px" viewBox="0 0 512 512" xml:space="preserve">
<path fill="#0192D5" d="M90.6,210c6.5-0.1,12.9-0.1,19.4-0.2c16.9-0.3,33.8-0.1,50.7-0.2c41.3,0,82.6,0,123.8,0
	c20.2,0,40.4-0.1,60.7,0.1c16.3,0.1,32.6,0,48.9,0.2c8.7,0.1,17.4,0,26.1,0.1c1.1,0,1.2,0.1,1.2,1.2c0,15,0,29.9,0,44.9
	c0,1.2,0,1.2-1.2,1.2c-11.6,0-23.3,0-34.9,0c-1.4,0-1.4,0-1.4,1.4c-0.3,10.3-3.8,19.4-10.3,27.4c-4.6,5.6-10.2,9.9-16.7,12.8
	c-3.9,1.8-8.1,2.8-12.4,3.3c-8.3,0.8-16.5,0.1-24.2-3.3c-13.3-5.9-22.1-15.6-25.5-30c-0.8-3.4-1.1-6.9-1.2-10.4
	c0-0.9-0.3-1.2-1.2-1.2c-26.7,0-53.5,0-80.2,0c-0.7,0-1.1,0.1-1.2,1c-0.2,11.2-4.1,21-11.6,29.3c-6.5,7.3-14.5,12.1-24.1,13.9
	c-10.3,1.9-20.3,1-29.8-3.5c-4.2-2-7.9-4.5-11.3-7.7c-7.3-6.8-11.5-15.3-12.9-25.1c-0.3-2.2-0.5-4.4-0.6-6.6c0-1.3,0-1.3-1.3-1.3
	c-9.2,0-18.4,0-27.6,0c-0.4,0-0.8,0-1.2,0C90.6,241.5,90.6,225.7,90.6,210z M188.8,257.3c0.5-12.2-10.3-23.1-22.4-23.4
	c-13.4-0.3-24.1,10.3-24.1,23.3c0,13,10.8,23,22.8,23.3C178.3,280.8,189.3,269,188.8,257.3z M337.9,234.9c-1.7-0.1-4.2,0.1-6.5,1
	c-7.9,3.2-13.1,8.9-14.9,17.2c-1.2,5.8-0.2,11.4,3.2,16.4c1,1.4,2.2,2.6,3.4,3.8c2.4,2.5,5.1,4.4,8.4,5.4c7,2.1,13.6,1.3,19.6-3
	c3.3-2.4,6.3-5.2,7.9-9c3.2-7.4,2.9-14.6-1.7-21.4C353,238.8,346.9,234.7,337.9,234.9z"/>
</svg>
