<?xml version="1.0" encoding="utf-8"?>
<!-- Generator: Adobe Illustrator 21.0.0, SVG Export Plug-In . SVG Version: 6.00 Build 0)  -->
<svg version="1.2" baseProfile="tiny" id="Layer_1" xmlns="http://www.w3.org/2000/svg" xmlns:xlink="http://www.w3.org/1999/xlink"
	 x="0px" y="0px" viewBox="0 0 512 512" overflow="scroll" xml:space="preserve">
<path fill="#0192D5" d="M331.2,182.5c0.3,0.3,0.6,0.7,0.9,1c29.4,29.4,58.8,58.8,88.2,88.1c0.8,0.8,1.1,1.6,1.1,2.7
	c0,17.9,0,35.8,0,53.6c0,1.5,0,1.5-1.5,1.5c-109.5,0-219,0-328.5,0c-0.3,0-0.6,0-0.9,0c0-39.7,0-79.4,0-119.2
	c0.1-1.2,0.2-2.3,0.4-3.5c1.1-6.8,4.3-12.4,9.5-16.8c4-3.4,8.4-5.7,13.5-6.8c1.5-0.3,3-0.4,4.5-0.6
	C189.4,182.5,260.3,182.5,331.2,182.5z M150.8,272.8c9.6,0,19.2,0,28.7,0c1.3,0,1.3,0,1.3-1.4c0-19.2,0-38.3,0-57.5
	c0-1.3,0-1.3-1.3-1.3c-19.1,0-38.3,0-57.4,0c-1.4,0-1.4,0-1.4,1.5c0,19.1,0,38.2,0,57.3c0,1.4,0,1.4,1.4,1.4
	C131.7,272.8,141.2,272.8,150.8,272.8z M211,242.8c0,9.6,0,19.1,0,28.7c0,1.4,0,1.4,1.4,1.4c19.1,0,38.2,0,57.2,0
	c1.3,0,1.4,0,1.4-1.3c0-19.1,0-38.3,0-57.4c0-1.4,0-1.4-1.4-1.4c-19.1,0-38.2,0-57.2,0c-1.3,0-1.3,0-1.3,1.3
	C211,223.6,211,233.2,211,242.8z M376.1,272.8c-0.4-0.4-0.6-0.6-0.8-0.8c-19.5-19.5-39-39-58.5-58.6c-0.5-0.5-1.1-0.7-1.8-0.7
	c-4.1,0-8.3,0-12.4,0c-1.4,0-1.4,0-1.4,1.4c0,19.1,0,38.2,0,57.3c0,1.4,0,1.4,1.5,1.4c24.1,0,48.2,0,72.3,0
	C375.2,272.8,375.5,272.8,376.1,272.8z"/>
</svg>
